<svg width="254" height="82" viewBox="0 0 254 82" fill="none" xmlns="http://www.w3.org/2000/svg">
<path d="M75.2 48.2H79.7C80.6333 47.0333 81.3667 45.3333 81.9 43.1C82.4667 40.8667 82.75 38.65 82.75 36.45C82.75 31.2167 81.7667 27.4 79.8 25H75.2V48.2ZM68.4 54V19H82.9C87.6333 23.2 90 28.9 90 36.1C90 43.2667 87.7833 49.2333 83.35 54H68.4ZM105.188 33.7H101.438C100.938 34.3 100.522 35.1333 100.188 36.2C99.8883 37.2667 99.7383 38.3 99.7383 39.3H106.888C106.955 38.3 106.822 37.2667 106.488 36.2C106.155 35.1 105.722 34.2667 105.188 33.7ZM111.988 48.75V54H99.2883C96.9549 52.4333 95.3049 50.5 94.3383 48.2C93.4049 45.8667 92.9383 43.5167 92.9383 41.15C92.9383 35.6833 95.0049 31.45 99.1383 28.45H107.238C109.472 30.0833 110.988 31.8167 111.788 33.65C112.588 35.4833 112.988 37.3333 112.988 39.2C112.988 41.0667 112.838 42.6667 112.538 44H100.088C100.188 44.7667 100.472 45.65 100.938 46.65C101.438 47.6167 101.972 48.3167 102.538 48.75H111.988ZM130.399 54H121.149C119.549 52.7 118.283 50.9833 117.349 48.85C116.416 46.7167 115.949 44.35 115.949 41.75V28.45H122.599V41.55C122.599 44.4833 123.149 46.8833 124.249 48.75H127.299C128.399 46.7833 128.949 44.4 128.949 41.6V28.45H135.599V41.5C135.599 44.1333 135.133 46.55 134.199 48.75C133.266 50.95 131.999 52.7 130.399 54ZM143.182 19H155.182V25H145.582L145.432 25.3L153.432 39.9C155.065 42.8333 155.882 45.0667 155.882 46.6C155.882 49.9667 154.765 52.4333 152.532 54H139.282V48.2H149.632L149.782 47.9L140.782 31.75C139.482 29.4167 138.832 27.5167 138.832 26.05C138.832 22.5833 140.282 20.2333 143.182 19ZM159.64 42.85V33.7H156.19V28.45H159.64V21.5H166.29V28.45H170.39V33.7H166.29V44.45C166.29 46.4833 166.64 47.9167 167.34 48.75H170.39V54H163.29C161.524 52.3667 160.457 50.6 160.09 48.7C159.79 47.1 159.64 45.15 159.64 42.85ZM173.766 54V28.45H178.516L179.766 31.15C181.1 29.35 182.783 28.45 184.816 28.45H186.766V35.15H180.416V54H173.766ZM200.257 33.7H196.507C196.007 34.3 195.59 35.1333 195.257 36.2C194.957 37.2667 194.807 38.3 194.807 39.3H201.957C202.023 38.3 201.89 37.2667 201.557 36.2C201.223 35.1 200.79 34.2667 200.257 33.7ZM207.057 48.75V54H194.357C192.023 52.4333 190.373 50.5 189.407 48.2C188.473 45.8667 188.007 43.5167 188.007 41.15C188.007 35.6833 190.073 31.45 194.207 28.45H202.307C204.54 30.0833 206.057 31.8167 206.857 33.65C207.657 35.4833 208.057 37.3333 208.057 39.2C208.057 41.0667 207.907 42.6667 207.607 44H195.157C195.257 44.7667 195.54 45.65 196.007 46.65C196.507 47.6167 197.04 48.3167 197.607 48.75H207.057ZM223.462 42.45H218.112C217.412 43.3167 217.062 44.4 217.062 45.7C217.062 47 217.428 48.0167 218.162 48.75H223.462V42.45ZM212.712 28.45H225.112C227.112 29.65 228.428 31.0333 229.062 32.6C229.695 34.1333 230.012 36.2333 230.012 38.9V46.4C230.012 49.1667 230.078 51.7 230.212 54H224.512L223.612 52.2C222.312 53.4 220.478 54 218.112 54H214.962C212.128 52.1333 210.712 49.45 210.712 45.95C210.712 42.4167 212.162 39.6333 215.062 37.6H219.762C221.062 37.6 222.278 38 223.412 38.8V36.3C223.412 35 222.845 34.1333 221.712 33.7H212.712V28.45ZM234.312 54V19H240.962V37.55H241.662L246.362 28.45H252.862L246.962 39.6L252.912 54H246.312L241.712 42.8H240.962V54H234.312Z" fill="url(#paint0_linear_597_199)"/>
<path d="M42.551 31.125H25.9625L32.0862 12.3648C32.6611 10.168 31.008 8 28.7512 8H8.05143C6.32645 8 4.86022 9.28633 4.63022 11.0062L0.0302702 45.6937C-0.242852 47.775 1.36713 49.625 3.45148 49.625H20.5144L13.8876 77.7363C13.3701 79.9332 15.0376 82 17.2369 82C18.4444 82 19.5944 81.3641 20.2269 80.2656L45.5266 36.3281C46.8635 34.0301 45.2104 31.125 42.551 31.125Z" fill="url(#paint1_linear_597_199)"/>
<defs>
<linearGradient id="paint0_linear_597_199" x1="160" y1="0" x2="160" y2="70" gradientUnits="userSpaceOnUse">
<stop stop-color="#FF9E00"/>
<stop offset="1" stop-color="white"/>
</linearGradient>
<linearGradient id="paint1_linear_597_199" x1="23" y1="8" x2="23" y2="82" gradientUnits="userSpaceOnUse">
<stop stop-color="#FF9E00"/>
<stop offset="1" stop-color="white"/>
</linearGradient>
</defs>
</svg>
